<?xml version="1.0" encoding="utf-8"?>
<!-- Generator: Adobe Illustrator 26.0.0, SVG Export Plug-In . SVG Version: 6.00 Build 0)  -->
<svg version="1.1" id="Layer_1" xmlns="http://www.w3.org/2000/svg" xmlns:xlink="http://www.w3.org/1999/xlink" x="0px" y="0px"
	 viewBox="0 0 300 104.9" style="enable-background:new 0 0 300 104.9;" xml:space="preserve">
<style type="text/css">
	.st0{fill:#E3D8D4;}
	.st1{clip-path:url(#SVGID_00000084491139205122347870000010559389021262327464_);}
	.st2{clip-path:url(#SVGID_00000060025845223537617960000012420633832570857120_);}
	.st3{clip-path:url(#SVGID_00000171722000471324521950000014272523058574695613_);}
</style>
<path class="st0" d="M238.1,75.3c2.4-2.4,3.9-5.7,3.9-9.4c0-3.7-1.5-6.9-3.9-9.4c-2.4-2.4-5.7-3.9-9.4-3.9s-6.9,1.5-9.4,3.9
	c-2.4,2.4-3.9,5.7-3.9,9.4c0,3.6,1.5,6.9,3.9,9.4c2.4,2.4,5.7,3.9,9.4,3.9C232.4,79.1,235.7,77.7,238.1,75.3"/>
<g>
	<g>
		<defs>
			<rect id="SVGID_1_" x="9.7" y="7.8" width="278.4" height="60.3"/>
		</defs>
		<clipPath id="SVGID_00000174562951217605942590000017742818443433102998_">
			<use xlink:href="#SVGID_1_"  style="overflow:visible;"/>
		</clipPath>
		<g style="clip-path:url(#SVGID_00000174562951217605942590000017742818443433102998_);">
			<path class="st0" d="M287.3,68c0.1-0.9,0.2-2,0.3-3.3c0.2-2.4,0.3-5.2,0.3-8.2c0-7.9-0.7-17-2.6-22.5c-0.6-1.7-1.3-3.1-2.2-3.8
				h-75c-14.1,4.2-25.8,6.4-35.4,7.3l0.9-0.9l10.3-10.3c0.8-0.8,0.8-2.1,0-2.9s-2.1-0.8-3,0l-13.9,13.9l-0.9,0.9
				c-1.7,0.1-3.3,0.1-4.9,0.1c-20.9,0-28.3-6.8-29.4-7.9h-15.6c0.4-0.3,0.8-0.6,1.2-0.9c1.6-1.1,3.2-2.3,5-3.4c1.4-1,3-2,4.6-3
				c1.6-1,3.2-2,4.8-2.9c1.6-0.9,3.3-1.9,4.9-2.8c1.7-0.9,3.2-1.8,4.9-2.5c0.8-0.4,1.6-0.8,2.4-1.2c0.8-0.4,1.5-0.8,2.3-1
				c1.5-0.6,2.9-1.3,4.2-1.8c1.3-0.5,2.5-0.9,3.6-1.3c1.1-0.4,2.1-0.6,2.9-0.9c1.6-0.5,2.5-0.8,2.5-0.8s-0.9,0.2-2.6,0.4
				c-0.8,0.2-1.8,0.2-3,0.5c-1.2,0.2-2.4,0.5-3.9,0.9c-1.4,0.3-2.9,0.8-4.5,1.2c-0.8,0.2-1.6,0.5-2.4,0.8s-1.7,0.5-2.5,0.8
				c-1.7,0.5-3.5,1.2-5.3,1.8c-1.8,0.6-3.6,1.4-5.4,2.1c-1.8,0.8-3.6,1.5-5.3,2.3c-1.7,0.8-3.5,1.6-5.1,2.4
				c-3.3,1.6-6.3,3.2-8.8,4.6c-2.5,1.4-4.7,2.6-6.1,3.5c-0.2,0.1-0.4,0.2-0.6,0.3c-0.5,0.3-0.9,0.5-1.2,0.7
				c-0.1,0.1-0.2,0.1-0.2,0.2H32.1c-4.9,0.8-8.6,2.8-11.4,5.6c-2.8,2.8-4.9,6.3-6.3,10c-2.9,7.5-3.6,15.8-4.3,20.9
				C10.1,67.2,10,67.6,10,68h29.4c-0.1-0.7-0.1-1.4-0.1-2.1c0-17.4,14.2-31.6,31.6-31.6s31.6,14.1,31.6,31.6c0,0.7-0.1,1.4-0.1,2.1
				h94.9c-0.1-0.7-0.1-1.4-0.1-2.1c0-17.4,14.2-31.6,31.6-31.6s31.6,14.1,31.6,31.6c0,0.7-0.1,1.4-0.1,2.1L287.3,68"/>
		</g>
	</g>
</g>
<g>
	<g>
		<defs>
			<rect id="SVGID_00000034789311208303583210000015490673256990319019_" x="256.5" y="72" width="32.9" height="9.4"/>
		</defs>
		<clipPath id="SVGID_00000155129151262824841200000017662001389002384517_">
			<use xlink:href="#SVGID_00000034789311208303583210000015490673256990319019_"  style="overflow:visible;"/>
		</clipPath>
		<g style="clip-path:url(#SVGID_00000155129151262824841200000017662001389002384517_);">
			<path class="st0" d="M289.2,72.3h-29.5c-0.6,3.1-1.7,6-3.2,8.7h32.7V72.3"/>
		</g>
	</g>
</g>
<g>
	<g>
		<defs>
			<rect id="SVGID_00000076581637629163679850000008191663420131682453_" x="6.4" y="72" width="36.7" height="9.4"/>
		</defs>
		<clipPath id="SVGID_00000163774655770418000640000009883193643331105201_">
			<use xlink:href="#SVGID_00000076581637629163679850000008191663420131682453_"  style="overflow:visible;"/>
		</clipPath>
		<g style="clip-path:url(#SVGID_00000163774655770418000640000009883193643331105201_);">
			<path class="st0" d="M6.5,81H43c-1.4-2.7-2.5-5.6-3.2-8.7H6.5V81"/>
		</g>
	</g>
</g>
<path class="st0" d="M98.6,81h102.3c-1.4-2.7-2.5-5.6-3.2-8.7h-96C101.1,75.4,100,78.3,98.6,81"/>
<path class="st0" d="M80.2,75.3c2.4-2.4,3.9-5.7,3.9-9.4c0-3.6-1.5-6.9-3.9-9.4c-2.4-2.4-5.7-3.9-9.4-3.9c-3.6,0-6.9,1.5-9.4,3.9
	c-2.4,2.4-3.9,5.7-3.9,9.4c0,3.7,1.5,6.9,3.9,9.4c2.4,2.4,5.7,3.9,9.4,3.9C74.4,79.1,77.7,77.7,80.2,75.3"/>
<g>
	<g>
		<path class="st0" d="M53.4,66c0-9.6,7.8-17.4,17.5-17.4S88.3,56.4,88.3,66s-7.8,17.4-17.5,17.4S53.4,75.6,53.4,66z M211.3,66
			c0-9.6,7.8-17.4,17.5-17.4c9.7,0,17.5,7.8,17.5,17.4s-7.8,17.4-17.5,17.4C219.2,83.4,211.3,75.6,211.3,66z M241.9,94.7h29
			c1.2,0,2.1-0.9,2.1-2.1s-0.9-2.1-2.1-2.1h-29.9c2.7-1.3,5.1-3.1,7.2-5.2c5-5,8-11.8,8-19.3s-3.1-14.4-8-19.3c-5-5-11.8-8-19.4-8
			c-7.6,0-14.4,3.1-19.4,8s-8,11.8-8,19.3c0,7.6,3.1,14.4,8,19.3c2.1,2.1,4.6,3.9,7.2,5.2H82.9c2.7-1.3,5.1-3.1,7.2-5.2
			c5-5,8-11.8,8-19.3c0-7.6-3.1-14.4-8-19.3c-5-5-11.8-8-19.4-8s-14.4,3.1-19.4,8s-8,11.8-8,19.3s3.1,14.4,8,19.3
			c2.1,2.1,4.6,3.9,7.2,5.2H28.7c-1.2,0-2.1,0.9-2.1,2.1s0.9,2.1,2.1,2.1H241.9"/>
	</g>
</g>
</svg>
